<svg xmlns="http://www.w3.org/2000/svg" xmlns:svg="http://www.w3.org/2000/svg" id="file-o-img" width="1792" height="1792" version="1.1" viewBox="0 0 1792 1792"><title id="title">Font Awesome by Dave Gandy - http://fontawesome.io</title><metadata id="metadata4152"/><path d="M1596 380q28 28 48 76t20 88v1152q0 40-28 68t-68 28h-1344q-40 0-68-28t-28-68v-1600q0-40 28-68t68-28h896q40 0 88 20t76 48zm-444-244v376h376q-10-29-22-41l-313-313q-12-12-41-22zm384 1528v-1024h-416q-40 0-68-28t-28-68v-416h-768v1536h1280z"/><path d="m 309.39392,848.86503 0,59.02519 108.67577,0 0,400.32948 -108.67577,0 0,59.0253 287.83454,0 0,-59.0253 -108.67576,0 0,-400.32948 108.67576,0 0,-59.02519 -287.83454,0 z"/><path d="m 679.86372,850.60109 0,516.64391 64.58048,0 0,-456.57711 92.70429,272.21021 53.12266,0 92.35702,-272.21021 0,456.57711 64.92773,0 0,-516.64391 -94.0931,0 -90.27381,263.18301 -89.57938,-263.18301 -93.74589,0 z"/><path d="m 1478.4397,1324.5387 0,-223.2544 -142.3549,0 0,57.6367 75.344,0 0,139.23 c -9.7218,7.6385 -20.1381,13.541 -31.9431,17.0129 -11.805,3.4723 -25.3461,5.2082 -40.6232,5.2082 -45.8313,0 -79.8576,-17.0133 -102.0788,-51.7337 -22.2213,-34.7209 -32.9847,-87.8436 -32.9847,-160.0626 0,-70.8303 11.1106,-123.60567 34.0263,-159.02083 22.9156,-35.41504 56.9419,-53.12258 102.7732,-53.12258 21.8741,0 42.7065,4.51369 62.4973,12.84666 19.4436,8.33297 38.8872,21.52682 57.6364,39.23428 l 0,-71.87173 c -18.7492,-12.49947 -37.8456,-21.52682 -57.6364,-27.77657 -20.138,-6.24972 -40.9704,-9.37457 -62.4973,-9.37457 -65.9693,0 -117.7031,23.95729 -154.507,71.17743 -37.1512,47.22025 -55.5531,113.18931 -55.5531,197.90791 0,85.0657 18.0547,151.0351 54.8586,198.2553 36.4568,47.2202 87.4962,70.483 153.4655,70.483 27.0822,0 52.4282,-4.1666 76.0383,-13.1941 23.6101,-9.0274 44.7897,-22.2211 63.5389,-39.5813 z"/></svg>